<svg viewBox="0 0 32 18"><g transform="translate(0 -0.321)"><g transform="translate(0 0.321)"><g><path d="M148.754,271.731a17.19,17.19,0,0,0-24.283,0L120,276.2l4.584,4.584a17.19,17.19,0,0,0,24.283,0l4.471-4.471Zm-.685,8.258a16.063,16.063,0,0,1-22.691,0l-3.786-3.787,3.676-3.674a16.065,16.065,0,0,1,22.691,0l3.786,3.787Zm0,0" transform="translate(-120 -266.71)" fill="#60738b            </        </    </g><path d="M141.2,273.851a3.947,3.947,0,0,0-3.943,3.943.563.563,0,0,0,1.127,0,2.818,2.818,0,0,1,2.816-2.816.564.564,0,0,0,0-1.128Zm0,0" transform="translate(-125.109 -268.503)" fill="#60738b    </path><path d="M140.578,269.851a7.321,7.321,0,1,0,7.323,7.32,7.328,7.328,0,0,0-7.323-7.32Zm0,13.515a6.194,6.194,0,1,1,6.2-6.195,6.2,6.2,0,0,1-6.2,6.195Zm0,0" transform="translate(-123.925 -267.319)" fill="#60738b    </path><ellipse cx="3" cy="2.5" rx="3" ry="2.5" transform="translate(14 7.779)" fill="#60738b    </    </</svg>